<svg width="14" height="4" viewBox="0 0 14 4" fill="none" xmlns="http://www.w3.org/2000/svg">
<path fill-rule="evenodd" clip-rule="evenodd" d="M0.5 1.99984C0.5 0.987315 1.32081 0.166504 2.33333 0.166504C3.34586 0.166504 4.16667 0.987315 4.16667 1.99984C4.16667 3.01236 3.34586 3.83317 2.33333 3.83317C1.32081 3.83317 0.5 3.01236 0.5 1.99984ZM2.33333 1.1665C1.8731 1.1665 1.5 1.5396 1.5 1.99984C1.5 2.46007 1.8731 2.83317 2.33333 2.83317C2.79357 2.83317 3.16667 2.46007 3.16667 1.99984C3.16667 1.5396 2.79357 1.1665 2.33333 1.1665Z" fill="#3F3F46"/>
<path fill-rule="evenodd" clip-rule="evenodd" d="M5.16667 1.99984C5.16667 0.987315 5.98748 0.166504 7 0.166504C8.01252 0.166504 8.83333 0.987315 8.83333 1.99984C8.83333 3.01236 8.01252 3.83317 7 3.83317C5.98748 3.83317 5.16667 3.01236 5.16667 1.99984ZM7 1.1665C6.53976 1.1665 6.16667 1.5396 6.16667 1.99984C6.16667 2.46007 6.53976 2.83317 7 2.83317C7.46024 2.83317 7.83333 2.46007 7.83333 1.99984C7.83333 1.5396 7.46024 1.1665 7 1.1665Z" fill="#3F3F46"/>
<path fill-rule="evenodd" clip-rule="evenodd" d="M11.6667 0.166504C10.6541 0.166504 9.83333 0.987315 9.83333 1.99984C9.83333 3.01236 10.6541 3.83317 11.6667 3.83317C12.6792 3.83317 13.5 3.01236 13.5 1.99984C13.5 0.987315 12.6792 0.166504 11.6667 0.166504ZM10.8333 1.99984C10.8333 1.5396 11.2064 1.1665 11.6667 1.1665C12.1269 1.1665 12.5 1.5396 12.5 1.99984C12.5 2.46007 12.1269 2.83317 11.6667 2.83317C11.2064 2.83317 10.8333 2.46007 10.8333 1.99984Z" fill="#3F3F46"/>
</svg>
